<svg xmlns="http://www.w3.org/2000/svg" viewBox="0 0 146.41 160"><path d="M83.83 7.5v19.35L93.16 15a7.36 7.36 0 0 1 10.48-.55A7.55 7.55 0 0 1 104.2 25L83.83 45v22l18.87-11 7-27.81a7.4 7.4 0 0 1 9.3-4.81 7.52 7.52 0 0 1 4.77 9.45l-5.51 14.1 16.59-9.67A7.37 7.37 0 0 1 145 40a7.55 7.55 0 0 1-2.72 10.25l-16.59 9.67 14.84 2.23a7.5 7.5 0 0 1 5.71 8.85 7.42 7.42 0 0 1-8.8 5.78L110.12 69 88.91 80l21.21 11 27.32-7.82a7.42 7.42 0 0 1 8.8 5.78 7.5 7.5 0 0 1-5.72 8.89l-14.84 2.23 16.59 9.68A7.54 7.54 0 0 1 145 120a7.38 7.38 0 0 1-10.14 2.75l-16.59-9.68 5.51 14.1a7.55 7.55 0 0 1-.64 6.07 7.39 7.39 0 0 1-13.48-1.44l-7-27.8-18.83-11v22l20.37 20a7.55 7.55 0 0 1-.56 10.59 7.36 7.36 0 0 1-10.48-.59l-9.33-11.87v19.37a7.46 7.46 0 0 1-7.42 7.5V0a7.46 7.46 0 0 1 7.42 7.5z" fill="#3482f2"/><path d="M43.91 80a32.53 32.53 0 0 0 32.5 32.5v10a42.5 42.5 0 0 1 0-85v10A32.53 32.53 0 0 0 43.91 80z" fill="none"/><path d="M2.26 97.9l16.08-13.61a5.62 5.62 0 0 0 0-8.58L2.26 62.1A6.36 6.36 0 0 1 5.9 50.9l21-1.56a5.62 5.62 0 0 0 5-6.94l-5-20.46A6.36 6.36 0 0 1 36.47 15l17.91 11.1a5.63 5.63 0 0 0 8.17-2.65l8-19.5A6.27 6.27 0 0 1 76.41 0v37.5a42.5 42.5 0 0 0 0 85V160a6.27 6.27 0 0 1-5.89-3.95l-8-19.5a5.63 5.63 0 0 0-8.17-2.65L36.47 145a6.36 6.36 0 0 1-9.53-6.92l5-20.46a5.62 5.62 0 0 0-5-6.94l-21-1.56A6.36 6.36 0 0 1 2.26 97.9z" fill="#f3ac02"/><path d="M43.91 80a32.53 32.53 0 0 1 32.5-32.5v65A32.53 32.53 0 0 1 43.91 80z" fill="#f3ac02"/></svg>