<svg xmlns="http://www.w3.org/2000/svg" viewBox="0 0 140 160"><path d="M139 94.26a7.58 7.58 0 0 0 .83-5.3 7.43 7.43 0 0 0-8.83-5.78L103.72 91 82.5 80l21.22-11L131 76.82a7.5 7.5 0 0 0 3.09-14.67l-14.84-2.23 16.59-9.67A7.55 7.55 0 0 0 138.58 40a7.38 7.38 0 0 0-10.14-2.75l-16.58 9.68 5.5-14.1a7.51 7.51 0 0 0-4.76-9.45 7.42 7.42 0 0 0-9.36 4.81L96.29 56 77.42 67V45l20.37-20a7.54 7.54 0 0 0-.55-10.59 7.36 7.36 0 0 0-10.48.59l-9.34 11.85V7.5a7.42 7.42 0 1 0-14.84 0v19.35L53.25 15a7.37 7.37 0 0 0-10.49-.55A7.55 7.55 0 0 0 42.21 25l20.37 20v22L43.71 56l-7-27.81a7.42 7.42 0 0 0-9.36-4.82 7.51 7.51 0 0 0-4.76 9.45l5.5 14.1-16.53-9.66A7.37 7.37 0 0 0 1.42 40a7.55 7.55 0 0 0 2.71 10.25l16.59 9.67-14.84 2.23A7.5 7.5 0 0 0 9 76.82L36.28 69 57.5 80 36.28 91 9 83.18a7.5 7.5 0 0 0-3.12 14.67l14.84 2.23-16.59 9.67A7.55 7.55 0 0 0 1.42 120a7.38 7.38 0 0 0 10.14 2.75l16.59-9.68-5.51 14.1a7.55 7.55 0 0 0 .63 6.07 7.39 7.39 0 0 0 13.49-1.44l7-27.8 18.82-11v22l-20.37 20a7.55 7.55 0 0 0 .55 10.59 7.37 7.37 0 0 0 10.49-.59l9.33-11.87v19.37a7.42 7.42 0 1 0 14.84 0v-19.35L86.75 145a7.37 7.37 0 0 0 10.49.55 7.55 7.55 0 0 0 .55-10.55l-20.37-20V93l18.87 11 6.95 27.81a7.42 7.42 0 0 0 9.36 4.82 7.51 7.51 0 0 0 4.76-9.45l-5.5-14.1 16.58 9.67a7.37 7.37 0 0 0 10.14-2.75 7.55 7.55 0 0 0-2.71-10.25l-16.59-9.67 14.84-2.23a7.43 7.43 0 0 0 4.88-3.59z" fill="#3482f2"/></svg>